<mxfile host="app.diagrams.net" modified="2023-10-26T14:38:40.507Z" agent="Mozilla/5.0 (Windows NT 10.0; Win64; x64) AppleWebKit/537.36 (KHTML, like Gecko) Chrome/118.0.0.0 Safari/537.36 Edg/118.0.2088.61" etag="LhhYnamoMXxCrxII61n8" version="22.0.8" type="github">
  <diagram name="第 1 页" id="9JHJbBo3ADVT23GMroNA">
    <mxGraphModel dx="719" dy="392" grid="0" gridSize="10" guides="1" tooltips="1" connect="1" arrows="1" fold="1" page="1" pageScale="1" pageWidth="827" pageHeight="1169" background="#000000" math="0" shadow="0">
      <root>
        <mxCell id="0" />
        <mxCell id="1" parent="0" />
        <mxCell id="2oLgsuXH93e-dBzLnIHe-7" value="&lt;b&gt;名字&lt;/b&gt;&lt;br&gt;關係的名字是 &quot; 使用 &quot;" style="html=1;whiteSpace=wrap;strokeColor=#BAC8D3;fontColor=#EEEEEE;fillColor=#09555B;" vertex="1" parent="1">
          <mxGeometry x="99" y="157" width="138" height="44" as="geometry" />
        </mxCell>
        <mxCell id="2oLgsuXH93e-dBzLnIHe-8" value="&lt;b&gt;角色&lt;/b&gt;&lt;br&gt;類的角色是 &quot; 事物 &quot;" style="html=1;whiteSpace=wrap;strokeColor=#BAC8D3;fontColor=#EEEEEE;fillColor=#09555B;" vertex="1" parent="1">
          <mxGeometry x="118" y="244" width="127" height="44" as="geometry" />
        </mxCell>
        <mxCell id="2oLgsuXH93e-dBzLnIHe-15" style="rounded=0;orthogonalLoop=1;jettySize=auto;html=1;exitX=0.5;exitY=1;exitDx=0;exitDy=0;entryX=0.5;entryY=0;entryDx=0;entryDy=0;strokeColor=#006666;endArrow=none;endFill=0;" edge="1" parent="1" source="2oLgsuXH93e-dBzLnIHe-9" target="2oLgsuXH93e-dBzLnIHe-11">
          <mxGeometry relative="1" as="geometry" />
        </mxCell>
        <mxCell id="2oLgsuXH93e-dBzLnIHe-9" value="&lt;p style=&quot;margin:0px;margin-top:4px;text-align:center;&quot;&gt;&lt;b&gt;ClassDiagram&lt;/b&gt;&lt;/p&gt;&lt;hr size=&quot;1&quot;&gt;&lt;p style=&quot;margin:0px;margin-left:4px;&quot;&gt;&lt;br&gt;&lt;/p&gt;&lt;hr size=&quot;1&quot;&gt;&lt;p style=&quot;margin:0px;margin-left:4px;&quot;&gt;&lt;br&gt;&lt;/p&gt;" style="verticalAlign=top;align=left;overflow=fill;fontSize=12;fontFamily=Helvetica;html=1;whiteSpace=wrap;strokeColor=#BAC8D3;fontColor=#EEEEEE;fillColor=#09555B;" vertex="1" parent="1">
          <mxGeometry x="334" y="98" width="159" height="70" as="geometry" />
        </mxCell>
        <mxCell id="2oLgsuXH93e-dBzLnIHe-11" value="&lt;p style=&quot;margin:0px;margin-top:4px;text-align:center;&quot;&gt;&lt;b&gt;Class&lt;/b&gt;&lt;/p&gt;&lt;hr size=&quot;1&quot;&gt;&lt;p style=&quot;margin:0px;margin-left:4px;&quot;&gt;&lt;br&gt;&lt;/p&gt;&lt;hr size=&quot;1&quot;&gt;&lt;p style=&quot;margin:0px;margin-left:4px;&quot;&gt;&lt;br&gt;&lt;/p&gt;" style="verticalAlign=top;align=left;overflow=fill;fontSize=12;fontFamily=Helvetica;html=1;whiteSpace=wrap;strokeColor=#BAC8D3;fontColor=#EEEEEE;fillColor=#09555B;" vertex="1" parent="1">
          <mxGeometry x="359" y="276" width="110" height="70" as="geometry" />
        </mxCell>
        <mxCell id="2oLgsuXH93e-dBzLnIHe-25" style="rounded=0;orthogonalLoop=1;jettySize=auto;html=1;exitX=0;exitY=0.25;exitDx=0;exitDy=0;entryX=0;entryY=0;entryDx=0;entryDy=0;strokeColor=#FFFFFF;" edge="1" parent="1" source="2oLgsuXH93e-dBzLnIHe-12" target="2oLgsuXH93e-dBzLnIHe-16">
          <mxGeometry relative="1" as="geometry" />
        </mxCell>
        <mxCell id="2oLgsuXH93e-dBzLnIHe-12" value="&lt;b&gt;方向&lt;br&gt;&lt;/b&gt;雙向關聯 ( 省略箭頭 )" style="html=1;whiteSpace=wrap;strokeColor=#BAC8D3;fontColor=#EEEEEE;fillColor=#09555B;" vertex="1" parent="1">
          <mxGeometry x="597" y="124" width="138" height="44" as="geometry" />
        </mxCell>
        <mxCell id="2oLgsuXH93e-dBzLnIHe-13" value="&lt;div style=&quot;&quot;&gt;&lt;b style=&quot;background-color: initial;&quot;&gt;多重性&lt;/b&gt;&lt;/div&gt;&lt;b&gt;&lt;div style=&quot;text-align: left;&quot;&gt;&lt;span style=&quot;background-color: initial; font-weight: normal;&quot;&gt;&amp;nbsp;(用數字和*表示)&lt;/span&gt;&lt;/div&gt;&lt;/b&gt;&lt;div style=&quot;text-align: left;&quot;&gt;&lt;span style=&quot;background-color: initial;&quot;&gt;&amp;nbsp;1...*:1個或多個&lt;/span&gt;&lt;/div&gt;&lt;div style=&quot;text-align: left;&quot;&gt;&lt;span style=&quot;background-color: initial;&quot;&gt;&amp;nbsp;1個類圖有1或多個類&lt;/span&gt;&lt;/div&gt;&lt;div style=&quot;text-align: left;&quot;&gt;&lt;span style=&quot;background-color: initial;&quot;&gt;&amp;nbsp;1個類屬於1個或多個類圖&lt;/span&gt;&lt;/div&gt;" style="rounded=0;whiteSpace=wrap;html=1;strokeColor=#BAC8D3;fontColor=#EEEEEE;fillColor=#09555B;align=center;" vertex="1" parent="1">
          <mxGeometry x="579.5" y="221" width="173" height="90" as="geometry" />
        </mxCell>
        <mxCell id="2oLgsuXH93e-dBzLnIHe-16" value="1..*" style="text;html=1;strokeColor=none;fillColor=none;align=center;verticalAlign=middle;whiteSpace=wrap;rounded=0;fontColor=#EEEEEE;" vertex="1" parent="1">
          <mxGeometry x="417" y="171" width="60" height="30" as="geometry" />
        </mxCell>
        <mxCell id="2oLgsuXH93e-dBzLnIHe-17" value="1..*" style="text;html=1;strokeColor=none;fillColor=none;align=center;verticalAlign=middle;whiteSpace=wrap;rounded=0;fontColor=#EEEEEE;" vertex="1" parent="1">
          <mxGeometry x="419" y="244" width="60" height="30" as="geometry" />
        </mxCell>
        <mxCell id="2oLgsuXH93e-dBzLnIHe-18" value="use" style="text;html=1;strokeColor=none;fillColor=none;align=center;verticalAlign=middle;whiteSpace=wrap;rounded=0;fontColor=#EEEEEE;" vertex="1" parent="1">
          <mxGeometry x="386" y="201" width="60" height="30" as="geometry" />
        </mxCell>
        <mxCell id="2oLgsuXH93e-dBzLnIHe-20" value="+thing" style="text;html=1;strokeColor=none;fillColor=none;align=center;verticalAlign=middle;whiteSpace=wrap;rounded=0;fontColor=#EEEEEE;" vertex="1" parent="1">
          <mxGeometry x="321" y="231" width="60" height="30" as="geometry" />
        </mxCell>
        <mxCell id="2oLgsuXH93e-dBzLnIHe-21" value="+diagram" style="text;html=1;strokeColor=none;fillColor=none;align=center;verticalAlign=middle;whiteSpace=wrap;rounded=0;fontColor=#EEEEEE;" vertex="1" parent="1">
          <mxGeometry x="316" y="171" width="60" height="30" as="geometry" />
        </mxCell>
        <mxCell id="2oLgsuXH93e-dBzLnIHe-22" style="rounded=0;orthogonalLoop=1;jettySize=auto;html=1;exitX=1;exitY=0.25;exitDx=0;exitDy=0;entryX=0.341;entryY=0.346;entryDx=0;entryDy=0;entryPerimeter=0;strokeColor=#FFFFFF;" edge="1" parent="1" source="2oLgsuXH93e-dBzLnIHe-7" target="2oLgsuXH93e-dBzLnIHe-18">
          <mxGeometry relative="1" as="geometry" />
        </mxCell>
        <mxCell id="2oLgsuXH93e-dBzLnIHe-23" style="rounded=0;orthogonalLoop=1;jettySize=auto;html=1;exitX=1;exitY=0.5;exitDx=0;exitDy=0;entryX=0.182;entryY=0.702;entryDx=0;entryDy=0;entryPerimeter=0;strokeColor=#FFFFFF;" edge="1" parent="1" source="2oLgsuXH93e-dBzLnIHe-8" target="2oLgsuXH93e-dBzLnIHe-20">
          <mxGeometry relative="1" as="geometry" />
        </mxCell>
        <mxCell id="2oLgsuXH93e-dBzLnIHe-24" style="rounded=0;orthogonalLoop=1;jettySize=auto;html=1;exitX=0;exitY=0.25;exitDx=0;exitDy=0;entryX=0.761;entryY=0.618;entryDx=0;entryDy=0;entryPerimeter=0;strokeColor=#FFFFFF;" edge="1" parent="1" source="2oLgsuXH93e-dBzLnIHe-13" target="2oLgsuXH93e-dBzLnIHe-17">
          <mxGeometry relative="1" as="geometry" />
        </mxCell>
      </root>
    </mxGraphModel>
  </diagram>
</mxfile>
